HIERARCHY
ROOT Hips
{
  OFFSET 5.72205e-005 65.662 3.42586
  CHANNELS 6 Xposition Yposition Zposition Zrotation Xrotation Yrotation
  JOINT Chest
  {
    OFFSET 0 8.7983 -4.7612
    CHANNELS 6 Xposition Yposition Zposition Zrotation Xrotation Yrotation
    JOINT Chest2
    {
      OFFSET 0 8.0291 0.4195
      CHANNELS 6 Xposition Yposition Zposition Zrotation Xrotation Yrotation
      JOINT Chest3
      {
        OFFSET 0 9.9351 -2.2114
        CHANNELS 6 Xposition Yposition Zposition Zrotation Xrotation Yrotation
        JOINT Neck
        {
          OFFSET 0 22.3885 -0.4656
          CHANNELS 6 Xposition Yposition Zposition Zrotation Xrotation Yrotation
          JOINT Head
          {
            OFFSET -0.0001 12.643 3.4389
            CHANNELS 6 Xposition Yposition Zposition Zrotation Xrotation Yrotation
            End Site
            {
              OFFSET 0.0001 17.6655 0.5274
            }
          }
        }
        JOINT LeftCollar
        {
          OFFSET 2.2603 21.606 7.4023
          CHANNELS 6 Xposition Yposition Zposition Zrotation Xrotation Yrotation
          JOINT LeftShoulder
          {
            OFFSET 13.5163 -1.1332 -5.0146
            CHANNELS 6 Xposition Yposition Zposition Zrotation Xrotation Yrotation
            JOINT LeftElbow
            {
              OFFSET -0.0995 -28.05 -0.2431
              CHANNELS 6 Xposition Yposition Zposition Zrotation Xrotation Yrotation
              JOINT LeftWrist
              {
                OFFSET 0.0679 -23.3996 -0.1402
                CHANNELS 6 Xposition Yposition Zposition Zrotation Xrotation Yrotation
                JOINT LeftFinger1
                {
                  OFFSET 0.7932 -9.069 2.5189
                  CHANNELS 6 Xposition Yposition Zposition Zrotation Xrotation Yrotation
                  JOINT LeftFinger11
                  {
                    OFFSET -0.8272 -3.3923 0.5977
                    CHANNELS 6 Xposition Yposition Zposition Zrotation Xrotation Yrotation
                    JOINT LeftFinger12
                    {
                      OFFSET -0.5649 -2.3158 0.4082
                      CHANNELS 6 Xposition Yposition Zposition Zrotation Xrotation Yrotation
                      End Site
                      {
                        OFFSET -0.4919 -1.6479 0.2673
                      }
                    }
                  }
                }
                JOINT LeftFinger2
                {
                  OFFSET 0.9159 -9.2044 0.2193
                  CHANNELS 6 Xposition Yposition Zposition Zrotation Xrotation Yrotation
                  JOINT LeftFinger21
                  {
                    OFFSET 0.0117 -4.1944 -0.0248
                    CHANNELS 6 Xposition Yposition Zposition Zrotation Xrotation Yrotation
                    JOINT LeftFinger22
                    {
                      OFFSET 0.0071 -2.3249 -0.0142
                      CHANNELS 6 Xposition Yposition Zposition Zrotation Xrotation Yrotation
                      End Site
                      {
                        OFFSET -0.1475 -2.0882 0.0028
                      }
                    }
                  }
                }
                JOINT LeftFinger3
                {
                  OFFSET 0.6113 -8.7231 -2.0637
                  CHANNELS 6 Xposition Yposition Zposition Zrotation Xrotation Yrotation
                  JOINT LeftFinger31
                  {
                    OFFSET -0.1927 -3.8059 -0.2383
                    CHANNELS 6 Xposition Yposition Zposition Zrotation Xrotation Yrotation
                    JOINT LeftFinger32
                    {
                      OFFSET -0.1091 -2.1688 -0.1362
                      CHANNELS 6 Xposition Yposition Zposition Zrotation Xrotation Yrotation
                      End Site
                      {
                        OFFSET -0.2358 -1.9176 -0.0906
                      }
                    }
                  }
                }
                JOINT LeftFinger4
                {
                  OFFSET -0.6151 -8.0947 -3.5641
                  CHANNELS 6 Xposition Yposition Zposition Zrotation Xrotation Yrotation
                  JOINT LeftFinger41
                  {
                    OFFSET -0.4882 -2.341 -0.6462
                    CHANNELS 6 Xposition Yposition Zposition Zrotation Xrotation Yrotation
                    JOINT LeftFinger42
                    {
                      OFFSET -0.3575 -1.7167 -0.4742
                      CHANNELS 6 Xposition Yposition Zposition Zrotation Xrotation Yrotation
                      End Site
                      {
                        OFFSET -0.4187 -1.5237 -0.3496
                      }
                    }
                  }
                }
                JOINT LeftFinger0
                {
                  OFFSET -1.42 -1.8761 1.4223
                  CHANNELS 6 Xposition Yposition Zposition Zrotation Xrotation Yrotation
                  JOINT LeftFinger01
                  {
                    OFFSET -1.1471 -3.4929 2.6334
                    CHANNELS 6 Xposition Yposition Zposition Zrotation Xrotation Yrotation
                    JOINT LeftFinger02
                    {
                      OFFSET -0.823 -2.3 1.6571
                      CHANNELS 6 Xposition Yposition Zposition Zrotation Xrotation Yrotation
                      End Site
                      {
                        OFFSET -0.5822 -1.6914 1.1582
                      }
                    }
                  }
                }
              }
            }
          }
        }
        JOINT RightCollar
        {
          OFFSET -2.2603 21.606 7.4023
          CHANNELS 6 Xposition Yposition Zposition Zrotation Xrotation Yrotation
          JOINT RightShoulder
          {
            OFFSET -13.5187 -1.1334 -5.0155
            CHANNELS 6 Xposition Yposition Zposition Zrotation Xrotation Yrotation
            JOINT RightElbow
            {
              OFFSET 0.0994 -28.0499 -0.2431
              CHANNELS 6 Xposition Yposition Zposition Zrotation Xrotation Yrotation
              JOINT RightWrist
              {
                OFFSET -0.0679 -23.3996 -0.1402
                CHANNELS 6 Xposition Yposition Zposition Zrotation Xrotation Yrotation
                JOINT RightFinger1
                {
                  OFFSET -0.7932 -9.0691 2.5189
                  CHANNELS 6 Xposition Yposition Zposition Zrotation Xrotation Yrotation
                  JOINT RightFinger11
                  {
                    OFFSET 0.8272 -3.3923 0.5977
                    CHANNELS 6 Xposition Yposition Zposition Zrotation Xrotation Yrotation
                    JOINT RightFinger12
                    {
                      OFFSET 0.565 -2.3158 0.4082
                      CHANNELS 6 Xposition Yposition Zposition Zrotation Xrotation Yrotation
                      End Site
                      {
                        OFFSET 0.4919 -1.6479 0.2673
                      }
                    }
                  }
                }
                JOINT RightFinger2
                {
                  OFFSET -0.916 -9.2044 0.2193
                  CHANNELS 6 Xposition Yposition Zposition Zrotation Xrotation Yrotation
                  JOINT RightFinger21
                  {
                    OFFSET -0.0117 -4.1944 -0.0248
                    CHANNELS 6 Xposition Yposition Zposition Zrotation Xrotation Yrotation
                    JOINT RightFinger22
                    {
                      OFFSET -0.0071 -2.3249 -0.0142
                      CHANNELS 6 Xposition Yposition Zposition Zrotation Xrotation Yrotation
                      End Site
                      {
                        OFFSET 0.1475 -2.0882 0.0028
                      }
                    }
                  }
                }
                JOINT RightFinger3
                {
                  OFFSET -0.6113 -8.7231 -2.0637
                  CHANNELS 6 Xposition Yposition Zposition Zrotation Xrotation Yrotation
                  JOINT RightFinger31
                  {
                    OFFSET 0.1927 -3.8059 -0.2383
                    CHANNELS 6 Xposition Yposition Zposition Zrotation Xrotation Yrotation
                    JOINT RightFinger32
                    {
                      OFFSET 0.1091 -2.1688 -0.1362
                      CHANNELS 6 Xposition Yposition Zposition Zrotation Xrotation Yrotation
                      End Site
                      {
                        OFFSET 0.2358 -1.9176 -0.0906
                      }
                    }
                  }
                }
                JOINT RightFinger4
                {
                  OFFSET 0.6151 -8.0947 -3.564
                  CHANNELS 6 Xposition Yposition Zposition Zrotation Xrotation Yrotation
                  JOINT RightFinger41
                  {
                    OFFSET 0.4882 -2.341 -0.6462
                    CHANNELS 6 Xposition Yposition Zposition Zrotation Xrotation Yrotation
                    JOINT RightFinger42
                    {
                      OFFSET 0.3574 -1.7166 -0.4742
                      CHANNELS 6 Xposition Yposition Zposition Zrotation Xrotation Yrotation
                      End Site
                      {
                        OFFSET 0.4187 -1.5237 -0.3496
                      }
                    }
                  }
                }
                JOINT RightFinger0
                {
                  OFFSET 1.4199 -1.8761 1.4221
                  CHANNELS 6 Xposition Yposition Zposition Zrotation Xrotation Yrotation
                  JOINT RightFinger01
                  {
                    OFFSET 1.1472 -3.4929 2.6336
                    CHANNELS 6 Xposition Yposition Zposition Zrotation Xrotation Yrotation
                    JOINT RightFinger02
                    {
                      OFFSET 0.8229 -2.3 1.6571
                      CHANNELS 6 Xposition Yposition Zposition Zrotation Xrotation Yrotation
                      End Site
                      {
                        OFFSET 0.5822 -1.6914 1.1582
                      }
                    }
                  }
                }
              }
            }
          }
        }
      }
    }
  }
  JOINT RightHip
  {
    OFFSET -9.412 3.9771 -0.7758
    CHANNELS 6 Xposition Yposition Zposition Zrotation Xrotation Yrotation
    JOINT RightKnee
    {
      OFFSET -0.7531 -40.938 0
      CHANNELS 6 Xposition Yposition Zposition Zrotation Xrotation Yrotation
      JOINT RightAnkle
      {
        OFFSET 0 -40.1986 0
        CHANNELS 6 Xposition Yposition Zposition Zrotation Xrotation Yrotation
        JOINT RightToe
        {
          OFFSET 0 -4.4182 9.239
          CHANNELS 6 Xposition Yposition Zposition Zrotation Xrotation Yrotation
          End Site
          {
            OFFSET 0 0 6.1981
          }
        }
      }
    }
  }
  JOINT LeftHip
  {
    OFFSET 9.4119 3.9773 -0.7758
    CHANNELS 6 Xposition Yposition Zposition Zrotation Xrotation Yrotation
    JOINT LeftKnee
    {
      OFFSET 0.7532 -40.9383 0
      CHANNELS 6 Xposition Yposition Zposition Zrotation Xrotation Yrotation
      JOINT LeftAnkle
      {
        OFFSET 0 -40.1986 0
        CHANNELS 6 Xposition Yposition Zposition Zrotation Xrotation Yrotation
        JOINT LeftToe
        {
          OFFSET 0 -4.4182 9.239
          CHANNELS 6 Xposition Yposition Zposition Zrotation Xrotation Yrotation
          End Site
          {
            OFFSET 0 0 6.1981
          }
        }
      }
    }
  }
}
MOTION
Frames:	4
Frame Time:	0.0333333
5.72205e-005 65.662 3.42586 0 0 -0 0 8.7983 -4.7612 0 0 -0 0 8.0291 0.4195 0 0 -0 0 9.9351 -2.2114 0 0 -0 0 22.3885 -0.4656 0 0 -0 -0.0001 12.643 3.4389 0 0 -0 2.2603 21.606 7.4023 0 0 -12.5014 13.5163 -1.1332 -5.0146 88.1196 14.2451 10.6914 -0.0995 -28.05 -0.2431 -0.00160068 -0.00239207 0.000740045 0.0679 -23.3996 -0.1402 -8.4365e-005 7.00714e-005 -9.52055e-007 0.7932 -9.069 2.5189 9.93923e-017 -1.98785e-016 -1.59028e-015 -0.8272 -3.3923 0.5977 9.93923e-017 -5.96354e-016 -1.59028e-015 -0.5649 -2.3158 0.4082 -9.93923e-017 -5.96354e-016 -1.59028e-015 0.9159 -9.2044 0.2193 9.93923e-017 -1.98785e-016 -1.59028e-015 0.0117 -4.1944 -0.0248 -0.0128176 0.00232552 8.52707e-005 0.0071 -2.3249 -0.0142 9.93923e-017 5.96354e-016 -0 0.6113 -8.7231 -2.0637 9.93923e-017 -1.98785e-016 -1.59028e-015 -0.1927 -3.8059 -0.2383 -0.0160551 0.00299681 0.000857156 -0.1091 -2.1688 -0.1362 -2.48481e-016 0 3.18055e-015 -0.6151 -8.0947 -3.5641 9.93923e-017 -1.98785e-016 -1.59028e-015 -0.4882 -2.341 -0.6462 -0.0125865 0.0031206 0.00282719 -0.3575 -1.7167 -0.4742 0 1.98785e-016 -0 -1.42 -1.8761 1.4223 9.93923e-017 -1.98785e-016 -1.59028e-015 -1.1471 -3.4929 2.6334 9.93923e-017 -5.96354e-016 -1.59028e-015 -0.823 -2.3 1.6571 -9.93923e-017 -5.96354e-016 -1.59028e-015 -2.2603 21.606 7.4023 -0.865644 0.16582 7.03859 -13.5187 -1.1334 -5.0155 -88.0329 10.2057 -10.5567 0.0994 -28.0499 -0.2431 0.0015593 -0.00248883 -0.000788628 -0.0679 -23.3996 -0.1402 7.87605e-005 4.10553e-005 1.24965e-005 -0.7932 -9.0691 2.5189 -3.97569e-016 -7.95139e-016 3.18055e-015 0.8272 -3.3923 0.5977 -1.98785e-016 -3.97569e-016 3.18055e-015 0.565 -2.3158 0.4082 -1.98785e-016 0 3.18055e-015 -0.916 -9.2044 0.2193 -3.97569e-016 -7.95139e-016 3.18055e-015 -0.0117 -4.1944 -0.0248 0.0129473 0.00231697 -8.70038e-005 -0.0071 -2.3249 -0.0142 9.93923e-017 -7.95139e-016 1.59028e-015 -0.6113 -8.7231 -2.0637 -3.97569e-016 -7.95139e-016 3.18055e-015 0.1927 -3.8059 -0.2383 0.0163314 0.00303369 -0.000872333 0.1091 -2.1688 -0.1362 3.97569e-016 7.95139e-016 -3.18055e-015 0.6151 -8.0947 -3.564 -3.97569e-016 -7.95139e-016 3.18055e-015 0.4882 -2.341 -0.6462 0.0145763 0.00367772 -0.00326275 0.3574 -1.7166 -0.4742 9.93923e-017 -3.97569e-016 -0 1.4199 -1.8761 1.4221 -3.97569e-016 -7.95139e-016 3.18055e-015 1.1472 -3.4929 2.6336 -1.98785e-016 -3.97569e-016 3.18055e-015 0.8229 -2.3 1.6571 -1.98785e-016 0 3.18055e-015 -9.412 3.9771 -0.7758 3.42482 1.32465 -0.0626183 -0.7531 -40.938 0 0.000117508 0.717283 0.000978199 0 -40.1986 0 -3.4257 -2.04197 -0.0604716 8.88178e-016 -4.4182 9.239 6.47761e-025 0 -0 9.4119 3.9773 -0.7758 -3.42483 1.34017 0.0627307 0.7532 -40.9383 -2.22045e-016 -0.000193936 0.682302 -0.0013703 -8.88179e-016 -40.1986 0 3.42574 -2.02253 0.0595886 -8.88178e-016 -4.4182 9.239 -8.45714e-024 0 -7.40531e-025 
-0.78742 65.2319 -0.461788 12.2539 -6.84572 -113.93 0 8.7983 -4.7612 0.0164526 5.90769 -0.119371 0 8.0291 0.4195 0.0457465 11.8153 -0.242545 0 9.9351 -2.2114 0.04574 11.8154 -0.242553 4.44089e-016 22.3885 -0.4656 0.00216591 -0.00183698 0.0031533 -0.0001 12.643 3.4389 0.00206503 -0.00645681 0.000111619 2.2603 21.606 7.4023 -35.5838 -28.8493 -25.5698 13.5163 -1.1332 -5.0146 76.2092 17.8662 12.0568 -0.0995 -28.05 -0.2431 -0.31333 -0.542129 13.4276 0.0679 -23.3996 -0.1402 -16.4612 -17.3004 6.56669 0.7932 -9.069 2.5189 -6.36111e-015 -3.57812e-015 7.95139e-016 -0.8272 -3.3923 0.5977 -3.18055e-015 -7.15625e-015 3.18055e-015 -0.5649 -2.3158 0.4082 -9.54166e-015 1.98785e-015 3.18055e-015 0.9159 -9.2044 0.2193 -6.36111e-015 -3.57812e-015 7.95139e-016 0.0117 -4.1944 -0.0248 -0.0128194 0.00232406 7.89235e-005 0.0071 -2.3249 -0.0142 -3.18055e-015 4.37326e-015 -7.95139e-016 0.6113 -8.7231 -2.0637 -6.36111e-015 -3.57812e-015 7.95139e-016 -0.1927 -3.8059 -0.2383 -0.0160479 0.00298873 0.000851622 -0.1091 -2.1688 -0.1362 -1.32417e-031 -4.77083e-015 -1.59028e-015 -0.6151 -8.0947 -3.5641 -6.36111e-015 -3.57812e-015 7.95139e-016 -0.4882 -2.341 -0.6462 -0.0125462 0.00310696 0.00282004 -0.3575 -1.7167 -0.4742 -3.18055e-015 -3.57812e-015 -3.97569e-015 -1.42 -1.8761 1.4223 -6.36111e-015 -3.57812e-015 7.95139e-016 -1.1471 -3.4929 2.6334 -3.18055e-015 -7.15625e-015 3.18055e-015 -0.823 -2.3 1.6571 -9.54166e-015 1.98785e-015 3.18055e-015 -2.2603 21.606 7.4023 5.16517 -32.786 11.896 -13.5187 -1.1334 -5.0155 -76.2137 29.2433 -13.7654 0.0994 -28.0499 -0.2431 51.7535 -1.59706 -5.55196 -0.0679 -23.3996 -0.1402 13.3542 -23.7643 6.39622 -0.7932 -9.06911 2.5189 -2.77931e-006 -5.93319e-006 -6.8218e-006 0.8272 -3.3923 0.5977 1.5419e-006 2.00404e-006 -5.95251e-007 0.565 -2.3158 0.4082 3.18055e-015 -3.27593e-008 -3.18055e-015 -0.916 -9.20441 0.2193 -2.77931e-006 -5.93319e-006 -6.8218e-006 -0.0117 -4.1944 -0.0248 0.0129378 0.00231341 -8.57508e-005 -0.0071 -2.3249 -0.0142 1.4398e-006 -1.17401e-006 2.07558e-006 -0.6113 -8.7231 -2.0637 -2.77931e-006 -5.93319e-006 -6.8218e-006 0.1927 -3.8059 -0.2383 0.0163017 0.00303398 -0.000874459 0.1091 -2.1688 -0.1362 6.36111e-015 5.08223e-007 -3.18055e-015 0.6151 -8.0947 -3.564 -2.77931e-006 -5.93319e-006 -6.8218e-006 0.4882 -2.341 -0.6462 0.0145554 0.00366954 -0.00325608 0.3574 -1.7166 -0.4742 5.96347e-006 4.74191e-006 2.96112e-006 1.4199 -1.8761 1.4221 -2.77931e-006 -5.93319e-006 -6.8218e-006 1.1472 -3.4929 2.6336 1.5419e-006 2.00404e-006 -5.95251e-007 0.8229 -2.3 1.6571 3.18055e-015 -3.27593e-008 -3.18055e-015 -9.412 3.9771 -0.7758 -84.1595 -70.4901 -104.311 -0.7531 -40.938 -1.42109e-014 -41.0211 76.9588 44.9125 0 -40.1986 0 -0.919808 -15.9103 -1.91006 -3.55271e-015 -4.4182 9.239 -1.98785e-016 3.18055e-015 9.54166e-015 9.4119 3.9773 -0.7758 28.5556 30.0689 61.1211 0.7532 -40.9383 -7.10543e-015 32.6704 57.6874 -57.7086 0 -40.1986 3.55271e-015 8.00972 19.0808 16.2935 0 -4.4182 9.239 2.38542e-015 -2.38542e-015 -6.36111e-015 
0.0585057 65.4765 1.41154 -5.18345 -25.6066 178.015 0 8.7983 -4.7612 0.0503777 9.42018 -0.19564 -8.88178e-016 8.0291 0.4195 0.13672 18.8402 -0.408284 -8.88178e-016 9.9351 -2.2114 0.136721 18.8402 -0.408285 -8.88178e-016 22.3885 -0.4656 -0.00409706 0.00341921 -0.00596101 -0.0001 12.643 3.4389 -0.00391113 0.012205 -0.000224855 2.2603 21.606 7.4023 -63.9635 -43.8407 -38.0451 13.5163 -1.1332 -5.0146 68.9469 20.1268 12.8338 -0.0995 -28.05 -0.2431 -1.1003 -0.821338 21.2111 0.0679 -23.3996 -0.1402 -26.2408 -27.5585 9.76878 0.7932 -9.06901 2.5189 1.59209e-007 -1.62498e-006 -2.07528e-006 -0.8272 -3.3923 0.5977 -3.15399e-006 3.739e-007 -6.90822e-006 -0.5649 -2.3158 0.4082 1.74931e-014 -1.39372e-006 -0 0.9159 -9.20441 0.2193 1.59209e-007 -1.62498e-006 -2.07528e-006 0.0117 -4.1944 -0.0248 -0.0128345 0.00232371 7.33741e-005 0.0071 -2.3249 -0.0142 5.95877e-031 3.57812e-015 -9.54166e-015 0.6113 -8.7231 -2.0637 1.59209e-007 -1.62498e-006 -2.07528e-006 -0.1927 -3.8059 -0.2383 -0.0160285 0.00298939 0.000856796 -0.1091 -2.1688 -0.1362 7.15625e-015 -2.74091e-006 1.27222e-014 -0.6151 -8.0947 -3.5641 1.59209e-007 -1.62498e-006 -2.07528e-006 -0.4882 -2.341 -0.6462 -0.0125869 0.0031195 0.00282046 -0.3575 -1.7167 -0.4742 -2.99471e-006 8.01802e-006 -8.98357e-006 -1.42 -1.8761 1.4223 1.59209e-007 -1.62498e-006 -2.07528e-006 -1.1471 -3.4929 2.6334 -3.15399e-006 3.739e-007 -6.90822e-006 -0.823 -2.3 1.6571 1.74931e-014 -1.39372e-006 -0 -2.2603 21.606 7.4023 12.8369 -51.7704 17.6393 -13.5187 -1.1334 -5.0155 -68.6093 40.2029 -16.0707 0.0994 -28.0499 -0.2431 81.539 -4.26788 -12.0298 -0.0679 -23.3996 -0.1402 21.723 -37.349 10.893 -0.7932 -9.0691 2.5189 9.54166e-015 1.74826e-006 -3.18055e-015 0.8272 -3.3923 0.5977 3.18055e-015 3.18055e-015 1.27222e-014 0.565 -2.3158 0.4082 -2.16976e-006 1.4345e-007 -7.07781e-006 -0.916 -9.2044 0.2193 9.54166e-015 1.74826e-006 -3.18055e-015 -0.0117 -4.1944 -0.0248 0.0129153 0.00230989 -8.51405e-005 -0.0071 -2.3249 -0.0142 3.18055e-015 -1.11319e-014 3.18055e-015 -0.6113 -8.7231 -2.0637 9.54166e-015 1.74826e-006 -3.18055e-015 0.1927 -3.8059 -0.2383 0.0163219 0.00302977 -0.000875369 0.1091 -2.1688 -0.1362 -3.60542e-007 1.01465e-006 -5.04609e-006 0.6151 -8.0947 -3.564 9.54166e-015 1.74826e-006 -3.18055e-015 0.4882 -2.341 -0.6462 0.0145584 0.00366385 -0.00326419 0.3574 -1.7166 -0.4742 6.36111e-015 -1.59028e-015 3.18055e-015 1.4199 -1.8761 1.4221 9.54166e-015 1.74826e-006 -3.18055e-015 1.1472 -3.4929 2.6336 3.18055e-015 3.18055e-015 1.27222e-014 0.8229 -2.3 1.6571 -2.16976e-006 1.4345e-007 -7.07781e-006 -9.412 3.9771 -0.7758 -135.562 -27.8213 -149.034 -0.7531 -40.938 -1.42109e-014 -154.392 49.7892 152.045 -1.77636e-015 -40.1986 -3.55271e-015 -0.905047 -24.4683 -4.75454 -7.10543e-015 -4.4182 9.239 -2.11157e-006 2.43797e-007 2.78564e-007 9.4119 3.9773 -0.7758 35.1974 10.5658 86.8566 0.7532 -40.9383 7.10543e-015 91.4814 43.7511 -116.726 0 -40.1986 3.55271e-015 0.8152 29.7841 33.6815 0 -4.4182 9.239 4.28222e-006 1.26395e-006 -1.02202e-006 
0.281994 65.2405 0.900395 -1.15228 -23.0382 -172.941 0 8.7983 -4.7612 0.0444644 9.16933 -0.186698 8.88178e-016 8.0291 0.4195 0.122051 18.3385 -0.388334 8.88178e-016 9.9351 -2.2114 0.122052 18.3386 -0.388334 0 22.3885 -0.4656 -0.0236085 0.020391 -0.0343718 -0.0001 12.643 3.4389 -0.0225458 0.0703509 -0.00129631 2.2603 21.606 7.4023 -58.6821 -42.3666 -36.3629 13.5163 -1.1332 -5.0146 69.3954 20.9002 12.6897 -0.0995 -28.05 -0.2431 -2.76397 -0.574582 20.1378 0.0679 -23.3996 -0.1402 -24.6605 -26.7937 8.79956 0.7932 -9.06901 2.5189 -7.4683e-006 7.43476e-006 -4.12054e-006 -0.8272 -3.3923 0.5977 -1.07942e-006 -4.44747e-006 6.48009e-007 -0.5649 -2.3158 0.4082 1.78504e-006 4.17541e-006 -2.51729e-006 0.9159 -9.20441 0.2193 -7.4683e-006 7.43476e-006 -4.12054e-006 0.0117 -4.1944 -0.0248 -0.0128132 0.00231048 9.54849e-005 0.0071 -2.3249 -0.0142 1.50337e-006 8.6807e-007 -5.88896e-007 0.6113 -8.72311 -2.0637 -7.4683e-006 7.43476e-006 -4.12054e-006 -0.1927 -3.8059 -0.2383 -0.0160222 0.00298308 0.000855272 -0.1091 -2.1688 -0.1362 3.09804e-006 2.06464e-006 1.97187e-006 -0.6151 -8.09471 -3.5641 -7.4683e-006 7.43476e-006 -4.12054e-006 -0.4882 -2.341 -0.6462 -0.0126124 0.00312717 0.00283313 -0.3575 -1.7167 -0.4742 2.72546e-006 1.98282e-006 7.50377e-007 -1.42 -1.8761 1.4223 -7.4683e-006 7.43476e-006 -4.12054e-006 -1.1471 -3.4929 2.6334 -1.07942e-006 -4.44747e-006 6.48009e-007 -0.823 -2.3 1.6571 1.78504e-006 4.17541e-006 -2.51729e-006 -2.2603 21.606 7.4023 11.277 -49.7801 16.7634 -13.5187 -1.1334 -5.0155 -69.5788 38.8673 -15.7597 0.0994 -28.0499 -0.2431 78.2121 -3.80432 -11.1032 -0.0679 -23.3996 -0.1402 19.7157 -35.2295 9.43374 -0.7932 -9.06911 2.5189 -3.13646e-023 5.65015e-007 3.18055e-015 0.8272 -3.3923 0.5977 0 0 -3.18055e-015 0.565 -2.3158 0.4082 -0 -6.36111e-015 -0 -0.916 -9.20441 0.2193 -3.13646e-023 5.65015e-007 3.18055e-015 -0.0117 -4.1944 -0.0248 0.0129474 0.00231916 -8.77538e-005 -0.0071 -2.3249 -0.0142 -1.27222e-014 1.67374e-006 -0 -0.6113 -8.72311 -2.0637 -3.13646e-023 5.65015e-007 3.18055e-015 0.1927 -3.8059 -0.2383 0.0163515 0.00304019 -0.000874935 0.1091 -2.1688 -0.1362 -1.52642e-006 5.52529e-007 6.19471e-007 0.6151 -8.09471 -3.564 -3.13646e-023 5.65015e-007 3.18055e-015 0.4882 -2.341 -0.6462 0.0146092 0.00368397 -0.00326956 0.3574 -1.7166 -0.4742 0 0 -3.18055e-015 1.4199 -1.8761 1.4221 -3.13646e-023 5.65015e-007 3.18055e-015 1.1472 -3.4929 2.6336 0 0 -3.18055e-015 0.8229 -2.3 1.6571 -0 -6.36111e-015 -0 -9.412 3.9771 -0.7758 -131.716 -33.6081 -146.828 -0.7531 -40.938 1.42109e-014 -151.773 54.9914 150.672 -3.55271e-015 -40.1986 0 -1.23746 -23.4662 -3.84264 1.77636e-015 -4.4182 9.239 1.59028e-015 -1.59028e-015 -6.36111e-015 9.4119 3.9773 -0.7758 34.2788 15.0994 84.2706 0.7532 -40.9383 7.10543e-015 87.1183 47.156 -112.786 -7.10543e-015 -40.1986 7.10543e-015 2.14763 28.496 30.9378 7.10543e-015 -4.4182 9.239 -1.0271e-005 -3.88178e-006 9.5832e-007 
